# xmcd
#
# Track frame offsets:
#	150
#	16584
#	32378
#	47282
#	62531
#	77584
#	90284
#	108027
#	122514
#	134760
#	147295
#	163032
#	175011
#	186602
#	198924
#	214198
#	229118
#	245484
#	256985
#	271758
#	285022
#	301305
#	317516
#
# Disc length: 4418 seconds
#
# Revision: 0
# Processed by: cddbd v1.5.2PL0 Copyright (c) Steve Scherf et al.
# Submitted via: EZCDAudioConverter 2.2.2.1
#
DISCID=21114017
DTITLE=Fernando De Madariaga - Edicion Especial
DYEAR=2007
DGENRE=Balada
TTITLE0=Adios, Hoy Sobran Las Palabras
TTITLE1=Una Sonrisa, Una Lagrima
TTITLE2=Amor Sin Mañana
TTITLE3=Por Un Te Quiero Nada Mas
TTITLE4=Dile Que Tu Estas Enamorada
TTITLE5=Cuando La Hierba Crezca
TTITLE6=Hay Que Sembrar La Flor Del Amor
TTITLE7=Si Me Ven Llorar
TTITLE8=Quien Le Dira A Dolores
TTITLE9=Mis Ojos Te Mienten
TTITLE10=Tu Amor
TTITLE11=Puede Ser Esta Noche
TTITLE12=Sueña Que Estas Con El
TTITLE13=Dame De Tu Amor La Ilusion
TTITLE14=Ese Amor Soy Yo
TTITLE15=Por Mañana, Por Despues
TTITLE16=Buscame, Llamame
TTITLE17=Ya No Me Enamoro Mas
TTITLE18=Basta De Caricias
TTITLE19=Nunca Tuve Tanto Miedo
TTITLE20=Y Que Te Creias
TTITLE21=Primera Noche Sin Ti
TTITLE22=Eres Mi Fruta Madura
EXTD=
EXTT0=
EXTT1=
EXTT2=
EXTT3=
EXTT4=
EXTT5=
EXTT6=
EXTT7=
EXTT8=
EXTT9=
EXTT10=
EXTT11=
EXTT12=
EXTT13=
EXTT14=
EXTT15=
EXTT16=
EXTT17=
EXTT18=
EXTT19=
EXTT20=
EXTT21=
EXTT22=
PLAYORDER=
